<svg width="27" height="30" viewBox="0 0 27 30" fill="none" xmlns="http://www.w3.org/2000/svg">
<g clip-path="url(#clip0_74_77)">
<path d="M7.92187 1.03711L7.5 1.875H1.875C0.837891 1.875 0 2.71289 0 3.75C0 4.78711 0.837891 5.625 1.875 5.625H24.375C25.4121 5.625 26.25 4.78711 26.25 3.75C26.25 2.71289 25.4121 1.875 24.375 1.875H18.75L18.3281 1.03711C18.0117 0.398438 17.3613 0 16.6523 0H9.59766C8.88867 0 8.23828 0.398438 7.92187 1.03711ZM24.375 7.5H1.875L3.11719 27.3633C3.21094 28.8457 4.44141 30 5.92383 30H20.3262C21.8086 30 23.0391 28.8457 23.1328 27.3633L24.375 7.5Z" fill="white"/>
</g>
<defs>
<clipPath id="clip0_74_77">
<rect width="26.25" height="30" fill="white"/>
</clipPath>
</defs>
</svg>
